<svg width="24" height="23" viewBox="0 0 24 23" fill="none" xmlns="http://www.w3.org/2000/svg">
<path fill-rule="evenodd" clip-rule="evenodd" d="M1.66805 8.4C1.66805 7.56 1.86005 6.744 2.08805 6.12C3.19205 3.156 6.50405 1.824 9.22805 3.444C9.88805 3.828 10.38 4.368 10.836 4.98C11.268 5.544 11.34 5.976 12.024 5.976C12.516 5.976 12.696 5.604 12.876 5.328C13.488 4.38 14.34 3.528 15.396 3.096C15.648 3 15.876 2.928 16.2 2.856C17.604 2.532 19.0681 2.952 20.1481 3.756C22.2001 5.292 22.8001 8.376 21.8281 10.716C21.444 11.664 20.844 12.564 20.184 13.32C19.56 14.04 19.14 14.46 18.444 15.144L11.988 20.76L11.424 20.268C11.328 20.196 11.316 20.196 11.22 20.112C11.076 19.98 10.992 19.92 10.848 19.788L7.04405 16.536C5.94005 15.552 5.19605 14.844 4.17605 13.752C2.80805 12.288 1.66805 10.488 1.66805 8.4ZM0.300049 8.04C0.300049 9.336 0.372049 10.08 0.852049 11.268C1.17605 12.036 1.54805 12.648 1.99205 13.284C2.19605 13.572 2.42405 13.884 2.66405 14.16C3.16805 14.724 4.30805 15.972 4.78805 16.368C5.44805 16.92 6.21605 17.688 6.86405 18.216L8.14805 19.308C8.24405 19.392 8.26805 19.404 8.36405 19.5L9.62405 20.568C9.72005 20.664 9.74405 20.676 9.84005 20.76C11.028 21.708 11.664 22.848 13.044 21.684C13.344 21.444 13.584 21.228 13.884 20.976C14.664 20.316 15.6121 19.452 16.416 18.804L20.5201 15.024L21.252 14.208C21.384 14.052 21.48 13.932 21.6 13.776C21.732 13.608 21.828 13.5 21.96 13.308C22.872 11.976 23.664 10.464 23.664 8.724C23.664 7.416 23.5921 6.588 23.1 5.412C22.7761 4.644 22.092 3.564 21.456 3.024L21.0121 2.652C20.052 1.944 18.744 1.38 17.4121 1.38C15.912 1.38 15.156 1.56 13.944 2.292C13.44 2.592 12.144 3.744 12.024 4.152H11.94C11.832 3.744 10.524 2.592 10.0201 2.292C8.77205 1.536 8.01605 1.38 6.55205 1.38C5.61605 1.38 4.62005 1.704 3.99605 2.016C3.64805 2.196 3.32405 2.388 3.01205 2.616L2.14805 3.396L1.45205 4.308C0.804049 5.268 0.300049 6.78 0.300049 8.04Z" fill="#B2B2B2"/>
</svg>
